<?xml version="1.0" standalone="no"?>
<!DOCTYPE svg PUBLIC "-//W3C//DTD SVG 20010904//EN"
 "http://www.w3.org/TR/2001/REC-SVG-20010904/DTD/svg10.dtd">
<svg version="1.0" xmlns="http://www.w3.org/2000/svg"
 width="512.000000pt" height="512.000000pt" viewBox="0 0 512.000000 512.000000"
 preserveAspectRatio="xMidYMid meet">

<g transform="translate(0.000000,512.000000) scale(0.100000,-0.100000)"
fill="#3549de" stroke="none">
<path d="M2265 5108 c-43 -25 -44 -33 -45 -285 0 -241 0 -242 24 -270 24 -28
24 -28 170 -31 l146 -3 0 -134 0 -133 -27 -6 c-16 -3 -48 -8 -73 -11 -59 -9
-228 -50 -310 -77 -280 -89 -577 -267 -802 -480 -51 -47 -58 -59 -58 -91 0
-27 7 -45 25 -62 39 -40 74 -33 145 28 151 129 181 152 270 211 252 168 549
278 852 316 82 11 102 17 123 38 l25 25 0 247 0 247 -25 27 c-24 26 -25 26
-170 26 l-145 0 0 130 0 130 425 0 425 0 0 -130 0 -130 -142 0 c-97 -1 -148
-5 -159 -13 -36 -27 -39 -52 -39 -292 l0 -237 28 -27 c24 -24 41 -30 117 -40
471 -62 864 -261 1191 -604 278 -292 457 -656 520 -1057 20 -133 23 -422 5
-550 -90 -639 -493 -1200 -1071 -1490 -549 -275 -1182 -278 -1735 -6 -212 103
-393 235 -560 405 -77 79 -109 89 -159 50 -21 -16 -26 -29 -26 -62 0 -40 5
-47 113 -153 230 -226 501 -395 797 -496 779 -266 1616 -73 2196 506 487 487
708 1148 608 1820 -66 448 -287 881 -608 1196 l-66 65 92 92 92 92 112 -109
c93 -91 118 -110 143 -110 45 0 85 39 85 84 0 33 -12 48 -139 179 -77 78 -203
204 -281 280 -122 118 -145 137 -173 137 -45 0 -81 -38 -81 -85 0 -33 11 -48
107 -146 l107 -110 -96 -96 -97 -97 -58 42 c-265 191 -573 321 -895 377 l-98
17 0 133 0 134 144 3 c137 3 146 4 170 27 l26 24 0 243 c0 133 -3 250 -6 259
-17 44 -34 45 -591 45 -378 -1 -534 -4 -548 -12z"/>
<path d="M285 3385 c-49 -49 -23 -127 47 -140 18 -3 343 -5 721 -3 l689 3 24
28 c31 37 31 81 -1 112 l-24 25 -716 0 -716 0 -24 -25z"/>
<path d="M3900 3323 c-8 -3 -202 -192 -430 -419 l-416 -415 -57 26 c-83 38
-173 51 -255 36 -286 -52 -437 -360 -304 -617 l20 -39 -134 -136 c-116 -117
-134 -140 -134 -168 0 -45 38 -81 86 -81 34 0 48 10 171 132 l133 132 37 -18
c67 -32 126 -46 199 -46 307 0 511 323 381 602 l-25 53 419 421 c374 375 419
423 419 451 0 54 -63 104 -110 86z m-996 -953 c173 -65 218 -287 85 -419 -46
-46 -86 -63 -160 -69 -107 -7 -195 43 -243 140 -69 138 0 300 151 354 54 19
104 17 167 -6z"/>
<path d="M394 2806 c-42 -18 -61 -65 -44 -106 7 -17 21 -35 31 -40 11 -6 233
-10 562 -10 l544 0 20 23 c41 44 31 106 -21 131 -30 14 -94 16 -548 16 -406
-1 -519 -4 -544 -14z"/>
<path d="M4185 2408 c-22 -26 -26 -38 -21 -68 3 -20 9 -88 12 -151 8 -130 -5
-243 -42 -392 -157 -627 -726 -1051 -1374 -1024 -143 6 -231 21 -367 63 -90
29 -120 27 -153 -8 -44 -48 -18 -110 59 -139 169 -64 368 -94 569 -86 170 6
282 26 437 78 532 177 910 616 1022 1184 21 110 25 434 5 502 -23 78 -98 99
-147 41z"/>
<path d="M220 2207 c-53 -27 -62 -96 -18 -137 21 -20 32 -20 780 -20 l759 0
24 25 c34 33 34 83 -1 116 l-26 24 -746 2 c-590 2 -752 0 -772 -10z"/>
<path d="M374 1596 c-36 -30 -39 -86 -6 -119 l23 -22 500 -3 500 -3 29 30 c32
31 37 59 18 94 -25 47 -16 46 -540 47 l-497 0 -27 -24z"/>
<path d="M372 1000 c-50 -47 -31 -121 36 -140 25 -8 152 -10 384 -8 l346 3 26
24 c34 32 36 88 3 119 -23 22 -27 22 -398 22 -363 0 -376 -1 -397 -20z"/>
</g>
</svg>
